<svg width="18" height="19" fill="none" xmlns="http://www.w3.org/2000/svg"><g clip-path="url(#clip0)" fill="#000"><path d="M18 7.091V2.169A1.76 1.76 0 0016.242.411H11.32a1.76 1.76 0 00-1.722 1.407H8.402A1.76 1.76 0 006.68.41H1.758A1.76 1.76 0 000 2.17v4.922c0 .849.605 1.56 1.406 1.722v1.196A1.76 1.76 0 000 11.732v4.922a1.76 1.76 0 001.758 1.757H6.68a1.76 1.76 0 001.722-1.406h1.196a1.76 1.76 0 001.722 1.406h4.922A1.76 1.76 0 0018 16.654v-4.922a1.76 1.76 0 00-1.406-1.723V8.813A1.76 1.76 0 0018 7.091zm-6.68-5.977h4.922c.582 0 1.055.474 1.055 1.055v4.922c0 .582-.473 1.055-1.055 1.055H11.32a1.056 1.056 0 01-1.054-1.055V2.169c0-.581.473-1.054 1.054-1.054zM.703 7.091V2.169c0-.581.473-1.054 1.055-1.054H6.68c.581 0 1.054.473 1.054 1.054v4.922c0 .582-.473 1.055-1.054 1.055H1.758A1.056 1.056 0 01.703 7.09zM6.68 17.708H1.758a1.056 1.056 0 01-1.055-1.054v-4.922c0-.582.473-1.055 1.055-1.055h.879a.352.352 0 100-.703h-.528V8.849h4.57A1.76 1.76 0 008.438 7.09V2.52h1.126v4.57c0 .97.788 1.758 1.757 1.758h4.57v1.125h-4.57a1.76 1.76 0 00-1.757 1.758v4.57H8.437v-4.57A1.76 1.76 0 006.68 9.974H5.8a.352.352 0 000 .703h.88c.581 0 1.054.473 1.054 1.055v4.922c0 .581-.473 1.054-1.054 1.054zm10.617-5.976v4.922c0 .581-.473 1.054-1.055 1.054H11.32a1.056 1.056 0 01-1.054-1.054v-4.922c0-.582.473-1.055 1.054-1.055h4.922c.582 0 1.055.473 1.055 1.055z"/><path d="M2.813 5.685h.351v.351a1.056 1.056 0 002.11 0v-.351h.351a1.056 1.056 0 000-2.11h-.352v-.351a1.056 1.056 0 00-2.109 0v.351h-.352a1.056 1.056 0 000 2.11zm0-1.406h.703a.352.352 0 00.351-.352v-.703a.352.352 0 01.703 0v.703c0 .194.158.352.352.352h.703a.352.352 0 010 .703h-.703a.352.352 0 00-.352.351v.703a.352.352 0 01-.703 0v-.703a.352.352 0 00-.351-.351h-.704a.352.352 0 010-.703zm2.812 8.859H2.812a1.056 1.056 0 000 2.11h2.813a1.056 1.056 0 000-2.11zm0 1.406H2.812a.352.352 0 010-.703h2.813a.352.352 0 010 .703zm9.896-2.091a1.056 1.056 0 00-1.491 0l-.249.248-.248-.248a1.056 1.056 0 00-1.492 1.492l.249.248-.249.248a1.056 1.056 0 00.746 1.8c.27 0 .54-.103.746-.308l.248-.249.249.249c.411.411 1.08.411 1.491 0a1.056 1.056 0 000-1.492l-.248-.248.248-.249a1.056 1.056 0 000-1.492zm-.994 1.988l.497.497a.352.352 0 01-.497.498l-.497-.498a.352.352 0 00-.497 0l-.498.498a.35.35 0 01-.497 0 .352.352 0 010-.498l.497-.497a.352.352 0 000-.497l-.497-.497a.35.35 0 010-.497.35.35 0 01.497 0l.498.497a.352.352 0 00.497 0l.497-.497a.352.352 0 01.497.497l-.497.497a.351.351 0 000 .497zm-1.74-7.762c.27 0 .54-.103.746-.309l1.988-1.988A1.056 1.056 0 0014.03 2.89l-1.99 1.989a1.056 1.056 0 00.746 1.8zm-.249-1.303l1.989-1.989a.35.35 0 01.497 0 .352.352 0 010 .497l-1.989 1.99a.35.35 0 01-.497 0 .352.352 0 010-.498zm-8.319 5.301a.352.352 0 100-.703.351.351 0 100 .703z"/></g><defs><clipPath id="clip0"><path fill="#fff" transform="translate(0 .411)" d="M0 0h18v18H0z"/></clipPath></defs></svg>