<svg width="255" height="57" fill="none" xmlns="http://www.w3.org/2000/svg"><path d="M71.244 33.5h-4.172l-3.948-6.804h-2.94V33.5H56.32V13.9h7.84c1.81 0 3.35.635 4.62 1.904 1.27 1.27 1.904 2.8 1.904 4.592 0 1.213-.345 2.343-1.036 3.388a6.52 6.52 0 01-2.744 2.324l4.34 7.392zM64.16 17.512h-3.976v5.796h3.976c.728 0 1.353-.28 1.876-.84.523-.579.784-1.27.784-2.072 0-.803-.261-1.484-.784-2.044s-1.148-.84-1.876-.84zm22.088 10.472H75.692c.467 1.755 1.783 2.632 3.948 2.632 1.382 0 2.427-.467 3.136-1.4l2.912 1.68c-1.381 1.997-3.416 2.996-6.104 2.996-2.314 0-4.172-.7-5.572-2.1-1.4-1.4-2.1-3.164-2.1-5.292 0-2.09.69-3.845 2.072-5.264 1.363-1.419 3.136-2.128 5.32-2.128 2.072 0 3.762.71 5.068 2.128 1.344 1.419 2.016 3.173 2.016 5.264 0 .392-.046.887-.14 1.484zm-10.612-2.8h7.14c-.205-.915-.625-1.615-1.26-2.1-.616-.485-1.353-.728-2.212-.728-.97 0-1.773.252-2.408.756-.634.485-1.054 1.176-1.26 2.072zm28.758-6.076c1.605 0 2.884.523 3.836 1.568.97 1.045 1.456 2.445 1.456 4.2V33.5h-3.612v-8.372c0-.84-.206-1.493-.616-1.96-.411-.467-.99-.7-1.736-.7-.822 0-1.466.27-1.932.812-.448.541-.672 1.325-.672 2.352V33.5h-3.612v-8.372c0-.84-.206-1.493-.616-1.96-.41-.467-.99-.7-1.736-.7-.803 0-1.447.28-1.932.84-.467.541-.7 1.316-.7 2.324V33.5H88.91v-14h3.612v1.484c.84-1.25 2.137-1.876 3.892-1.876 1.736 0 3.005.672 3.808 2.016.914-1.344 2.305-2.016 4.172-2.016zm11.972.392v2.408c.317-.877.858-1.54 1.624-1.988.765-.467 1.642-.7 2.632-.7v4.032c-1.102-.15-2.091.075-2.968.672-.859.579-1.288 1.54-1.288 2.884V33.5h-3.612v-14h3.612zm16.489 1.652V19.5h3.612v14h-3.612v-1.652c-1.083 1.363-2.604 2.044-4.564 2.044-1.867 0-3.472-.71-4.816-2.128-1.326-1.437-1.989-3.192-1.989-5.264 0-2.053.663-3.799 1.989-5.236 1.344-1.437 2.949-2.156 4.816-2.156 1.96 0 3.481.681 4.564 2.044zm-6.664 8.204c.728.728 1.652 1.092 2.772 1.092 1.12 0 2.044-.364 2.772-1.092.746-.747 1.12-1.699 1.12-2.856 0-1.157-.374-2.1-1.12-2.828-.728-.747-1.652-1.12-2.772-1.12-1.12 0-2.044.373-2.772 1.12-.728.728-1.092 1.67-1.092 2.828 0 1.157.364 2.11 1.092 2.856zM147.75 19.5v3.472h-3.164v5.824c0 .485.121.84.364 1.064.243.224.597.355 1.064.392.467.019 1.045.01 1.736-.028V33.5c-2.445.28-4.191.056-5.236-.672-1.027-.747-1.54-2.09-1.54-4.032v-5.824h-2.436V19.5h2.436v-2.828l3.612-1.092v3.92h3.164zm4.339-1.68c-.598 0-1.12-.215-1.568-.644-.43-.448-.644-.97-.644-1.568 0-.597.214-1.12.644-1.568.448-.448.97-.672 1.568-.672a2.09 2.09 0 011.568.672c.448.448.672.97.672 1.568 0 .597-.224 1.12-.672 1.568-.43.43-.952.644-1.568.644zm1.82 15.68h-3.612v-14h3.612v14zm11.09-14.392c1.549 0 2.809.513 3.78 1.54 1.008 1.045 1.512 2.464 1.512 4.256V33.5h-3.612v-8.148c0-.915-.252-1.624-.756-2.128-.486-.504-1.158-.756-2.016-.756-.952 0-1.708.299-2.268.896-.542.579-.812 1.437-.812 2.576v7.56h-3.612v-14h3.612v1.568c.858-1.307 2.249-1.96 4.172-1.96zm19.1 2.128V19.5h3.528v13.328c0 2.147-.719 3.799-2.156 4.956-1.419 1.139-3.136 1.708-5.152 1.708-3.174 0-5.386-1.139-6.636-3.416l3.08-1.764c.69 1.307 1.913 1.96 3.668 1.96 1.138 0 2.034-.299 2.688-.896.653-.597.98-1.447.98-2.548v-1.512c-1.064 1.419-2.558 2.128-4.48 2.128-1.979 0-3.64-.69-4.984-2.072-1.326-1.419-1.988-3.117-1.988-5.096s.672-3.668 2.016-5.068c1.344-1.4 2.996-2.1 4.956-2.1 1.922 0 3.416.71 4.48 2.128zm-1.12 7.812c.746-.728 1.12-1.652 1.12-2.772 0-1.12-.374-2.025-1.12-2.716-.728-.728-1.662-1.092-2.8-1.092-1.12 0-2.063.364-2.828 1.092-.728.69-1.092 1.596-1.092 2.716s.364 2.044 1.092 2.772c.746.71 1.689 1.064 2.828 1.064 1.138 0 2.072-.355 2.8-1.064zm18.591-2.268h-10.5v-3.472h10.5v3.472zm6.801-3.304c0 .597.849 1.11 2.548 1.54.597.13 1.138.29 1.624.476.485.168.97.42 1.456.756.504.317.896.747 1.176 1.288.28.541.42 1.167.42 1.876 0 1.437-.542 2.548-1.624 3.332-1.083.765-2.418 1.148-4.004 1.148-2.875 0-4.835-1.11-5.88-3.332l3.136-1.764c.429 1.213 1.344 1.82 2.744 1.82 1.288 0 1.932-.401 1.932-1.204 0-.597-.85-1.11-2.548-1.54a17.291 17.291 0 01-1.624-.504 8.78 8.78 0 01-1.456-.728 3.523 3.523 0 01-1.204-1.26c-.262-.523-.392-1.13-.392-1.82 0-1.381.504-2.464 1.512-3.248 1.026-.803 2.296-1.204 3.808-1.204 1.138 0 2.174.261 3.108.784a5.538 5.538 0 012.212 2.184l-3.08 1.68c-.448-.952-1.195-1.428-2.24-1.428-.467 0-.859.112-1.176.336-.299.205-.448.476-.448.812zm17.831-4.368c1.886 0 3.491.719 4.816 2.156 1.344 1.437 2.016 3.183 2.016 5.236 0 2.09-.672 3.845-2.016 5.264-1.306 1.419-2.912 2.128-4.816 2.128-1.96 0-3.472-.681-4.536-2.044V39.1h-3.612V19.5h3.612v1.652c1.064-1.363 2.576-2.044 4.536-2.044zm-3.444 10.248c.728.728 1.652 1.092 2.772 1.092 1.12 0 2.044-.364 2.772-1.092.747-.747 1.12-1.699 1.12-2.856 0-1.157-.373-2.1-1.12-2.828-.728-.747-1.652-1.12-2.772-1.12-1.12 0-2.044.373-2.772 1.12-.728.728-1.092 1.67-1.092 2.828 0 1.157.364 2.11 1.092 2.856zm20.972-10.248c1.885 0 3.49.719 4.816 2.156 1.344 1.437 2.016 3.183 2.016 5.236 0 2.09-.672 3.845-2.016 5.264-1.307 1.419-2.912 2.128-4.816 2.128-1.96 0-3.472-.681-4.536-2.044V33.5h-3.612V13.9h3.612v7.252c1.064-1.363 2.576-2.044 4.536-2.044zm-3.444 10.248c.728.728 1.652 1.092 2.772 1.092 1.12 0 2.044-.364 2.772-1.092.746-.747 1.12-1.699 1.12-2.856 0-1.157-.374-2.1-1.12-2.828-.728-.747-1.652-1.12-2.772-1.12-1.12 0-2.044.373-2.772 1.12-.728.728-1.092 1.67-1.092 2.828 0 1.157.364 2.11 1.092 2.856z" fill="#161616"/><g clip-path="url(#clip0)" fill="#4496F6"><path d="M7.82 38.8V25.97L30.29 9.56l6.19 4.53 6.21-4.53L30.29.5.5 22.25V38.8h7.32z"/><path d="M32.08 38.8V25.97L54.55 9.56h12.4L54.55.5 24.76 22.25V38.8h7.32z"/></g><path d="M1.38 45.8h2.75c.69 0 1.265.231 1.727.693.462.462.693 1.038.693 1.727 0 .69-.231 1.265-.693 1.727-.462.462-1.038.693-1.727.693H2.15v2.86h-.77v-7.7zm.77 4.114h1.98c.477 0 .869-.158 1.177-.473.315-.315.473-.722.473-1.221 0-.491-.158-.895-.473-1.21-.308-.323-.7-.484-1.177-.484H2.15v3.388zm7.709-2.046c.821 0 1.477.29 1.969.869a2.97 2.97 0 01.759 2.035 7.4 7.4 0 01-.022.341h-4.83c.074.55.309.99.705 1.32.396.33.89.495 1.485.495.836 0 1.426-.312 1.77-.935l.639.374a2.564 2.564 0 01-1.001.935 3 3 0 01-1.42.33c-.864 0-1.568-.271-2.111-.814-.543-.543-.814-1.232-.814-2.068 0-.829.268-1.514.803-2.057.535-.55 1.225-.825 2.068-.825zm0 .704c-.572 0-1.052.169-1.441.506-.381.337-.609.781-.682 1.331h4.103c-.08-.587-.305-1.038-.671-1.353a1.969 1.969 0 00-1.31-.484zm7.623-1.452h-2.86v-.638h2.86v.638zm-3.014 5.115L17.746 48h.616v5.5h-.726v-4.235L14.358 53.5h-.616V48h.726v4.235zM19.237 48h4.62v.704H21.91V53.5h-.726v-4.796h-1.947V48zm6.23 4.235L28.747 48h.616v5.5h-.726v-4.235L25.358 53.5h-.616V48h.726v4.235zm9.324-1.837V48h.726v5.5h-.726v-2.398h-3.168V53.5h-.726V48h.726v2.398h3.168zM37.052 48h3.52v.704h-2.794V53.5h-.726V48zm10.102-.132c.785 0 1.452.279 2.002.836.558.557.837 1.24.837 2.046 0 .807-.28 1.489-.837 2.046a2.708 2.708 0 01-2.002.836c-.975 0-1.716-.403-2.222-1.21V55.7h-.726V48h.726v1.078c.506-.807 1.247-1.21 2.222-1.21zm-1.595 4.433c.419.418.932.627 1.54.627.61 0 1.123-.209 1.54-.627.418-.433.627-.95.627-1.551 0-.609-.209-1.122-.627-1.54a2.075 2.075 0 00-1.54-.638 2.08 2.08 0 00-1.54.638 2.093 2.093 0 00-.627 1.54c0 .601.21 1.118.627 1.551zm8.182-4.433c.821 0 1.477.29 1.969.869a2.97 2.97 0 01.759 2.035c0 .037-.008.15-.022.341h-4.83c.074.55.309.99.705 1.32.396.33.89.495 1.485.495.836 0 1.426-.312 1.77-.935l.639.374a2.564 2.564 0 01-1.001.935 3 3 0 01-1.42.33c-.865 0-1.569-.271-2.111-.814-.543-.543-.814-1.232-.814-2.068 0-.829.267-1.514.803-2.057.535-.55 1.224-.825 2.068-.825zm0 .704c-.572 0-1.053.169-1.441.506-.382.337-.609.781-.682 1.331h4.103c-.081-.587-.305-1.038-.671-1.353a1.969 1.969 0 00-1.31-.484zM62.178 48h.836v5.5h-.727v-4.389l-1.925 3.124h-.087l-1.925-3.124V53.5h-.727V48h.837l1.858 3.014L62.178 48zm6.983 4.807a2.825 2.825 0 01-2.046.825c-.814 0-1.5-.275-2.057-.825-.557-.557-.836-1.243-.836-2.057 0-.814.279-1.496.836-2.046.558-.557 1.243-.836 2.057-.836.807 0 1.489.279 2.046.836.565.55.847 1.232.847 2.046a2.8 2.8 0 01-.847 2.057zm-3.586-.506c.418.418.932.627 1.54.627.609 0 1.122-.209 1.54-.627.418-.433.627-.95.627-1.551 0-.609-.209-1.122-.627-1.54a2.075 2.075 0 00-1.54-.638c-.608 0-1.122.213-1.54.638a2.093 2.093 0 00-.627 1.54c0 .601.21 1.118.627 1.551zm9.542-1.903V48h.726v5.5h-.726v-2.398H71.95V53.5h-.726V48h.726v2.398h3.168zM76.718 48h4.62v.704h-1.947V53.5h-.726v-4.796h-1.947V48zm9.4 2.398V48h.725v5.5h-.726v-2.398H82.95V53.5h-.726V48h.726v2.398h3.168zm2.986-.308h1.507c.506 0 .94.161 1.298.484.36.315.54.722.54 1.221 0 .506-.18.917-.54 1.232-.344.315-.777.473-1.298.473h-2.233V48h.726v2.09zm4.114 3.41V48h.726v5.5h-.726zm-4.114-.704h1.507c.316 0 .58-.092.792-.275a.932.932 0 00.32-.726.9.9 0 00-.32-.715 1.143 1.143 0 00-.792-.286h-1.507v2.002zm8.86-2.145l2.146 2.849h-.87l-1.715-2.266-1.716 2.266h-.87l2.157-2.849L95.083 48h.869l1.573 2.079L99.098 48h.869l-2.002 2.651zm7.379-.011l2.948 2.86h-.968l-2.75-2.651V53.5h-.726V48h.726v2.431L107.191 48h.99l-2.838 2.64zm8.001 2.167a2.827 2.827 0 01-2.046.825c-.814 0-1.5-.275-2.057-.825-.557-.557-.836-1.243-.836-2.057 0-.814.279-1.496.836-2.046.557-.557 1.243-.836 2.057-.836.807 0 1.489.279 2.046.836.565.55.847 1.232.847 2.046a2.8 2.8 0 01-.847 2.057zm-3.586-.506c.418.418.931.627 1.54.627s1.122-.209 1.54-.627c.418-.433.627-.95.627-1.551 0-.609-.209-1.122-.627-1.54a2.075 2.075 0 00-1.54-.638c-.609 0-1.122.213-1.54.638a2.093 2.093 0 00-.627 1.54c0 .601.209 1.118.627 1.551zM119.96 48h.836v5.5h-.726v-4.389l-1.925 3.124h-.088l-1.925-3.124V53.5h-.726V48h.836l1.859 3.014L119.96 48zm2.374 0h4.62v5.5h-.726v-4.796h-3.168V53.5h-.726V48zm10.886 1.078V48h.726v5.5h-.726v-1.078c-.506.807-1.247 1.21-2.222 1.21a2.743 2.743 0 01-2.013-.836c-.55-.557-.825-1.24-.825-2.046 0-.807.275-1.489.825-2.046a2.743 2.743 0 012.013-.836c.975 0 1.716.403 2.222 1.21zm-3.707 3.223c.418.418.931.627 1.54.627.608 0 1.122-.209 1.54-.627.418-.433.627-.95.627-1.551 0-.609-.209-1.122-.627-1.54a2.076 2.076 0 00-1.54-.638c-.609 0-1.122.213-1.54.638a2.093 2.093 0 00-.627 1.54c0 .601.209 1.118.627 1.551zm9.864-1.903V48h.726v5.5h-.726v-2.398h-3.168V53.5h-.726V48h.726v2.398h3.168zm2.987 1.837L145.642 48h.616v5.5h-.726v-4.235l-3.278 4.235h-.616V48h.726v4.235zm9.169-5.115h-2.86v-.638h2.86v.638zm-3.014 5.115L151.797 48h.616v5.5h-.726v-4.235l-3.278 4.235h-.616V48h.726v4.235zm11.887 1.397c-1.174 0-2.138-.385-2.893-1.155-.763-.777-1.144-1.72-1.144-2.827s.381-2.05 1.144-2.827c.755-.77 1.719-1.155 2.893-1.155a3.81 3.81 0 011.947.517 3.619 3.619 0 011.386 1.375l-.682.396a2.739 2.739 0 00-1.078-1.122 3.06 3.06 0 00-1.573-.418c-.968 0-1.753.312-2.354.935-.609.63-.913 1.397-.913 2.299 0 .902.304 1.668.913 2.299.601.623 1.386.935 2.354.935a3.06 3.06 0 001.573-.418 2.739 2.739 0 001.078-1.122l.682.385a3.525 3.525 0 01-1.375 1.386 3.872 3.872 0 01-1.958.517zm9.165-4.554V48h.726v5.5h-.726v-1.078c-.506.807-1.246 1.21-2.222 1.21a2.746 2.746 0 01-2.013-.836c-.55-.557-.825-1.24-.825-2.046 0-.807.275-1.489.825-2.046a2.746 2.746 0 012.013-.836c.976 0 1.716.403 2.222 1.21zm-3.707 3.223c.418.418.932.627 1.54.627.609 0 1.122-.209 1.54-.627.418-.433.627-.95.627-1.551 0-.609-.209-1.122-.627-1.54a2.075 2.075 0 00-1.54-.638c-.608 0-1.122.213-1.54.638a2.093 2.093 0 00-.627 1.54c0 .601.209 1.118.627 1.551zm9.864-1.903V48h.726v5.5h-.726v-2.398h-3.168V53.5h-.726V48h.726v2.398h3.168zm3.758.242l2.948 2.86h-.968l-2.75-2.651V53.5h-.726V48h.726v2.431L181.334 48h.99l-2.838 2.64zm3.279-2.64h4.62v.704h-1.947V53.5h-.726v-4.796h-1.947V48zm9.242 2.453h-3.96v-.704h3.96v.704zm1.755-4.653h5.5v7.7h-.77v-6.974h-3.96V53.5h-.77v-7.7zm9.693 2.068c.821 0 1.477.29 1.969.869a2.97 2.97 0 01.759 2.035c0 .037-.008.15-.022.341h-4.829c.073.55.308.99.704 1.32.396.33.891.495 1.485.495.836 0 1.426-.312 1.771-.935l.638.374a2.566 2.566 0 01-1.001.935 3 3 0 01-1.419.33c-.866 0-1.57-.271-2.112-.814-.543-.543-.814-1.232-.814-2.068 0-.829.267-1.514.803-2.057.535-.55 1.224-.825 2.068-.825zm0 .704c-.572 0-1.053.169-1.441.506-.382.337-.609.781-.682 1.331h4.103c-.081-.587-.305-1.038-.671-1.353a1.97 1.97 0 00-1.309-.484zm3.008-.572h4.62v.704h-1.947V53.5h-.726v-4.796h-1.947V48zm7.83-.132c.822 0 1.478.29 1.969.869a2.97 2.97 0 01.759 2.035c0 .037-.007.15-.022.341h-4.829c.074.55.308.99.704 1.32.396.33.891.495 1.485.495.836 0 1.427-.312 1.771-.935l.638.374a2.56 2.56 0 01-1.001.935 3 3 0 01-1.419.33c-.865 0-1.569-.271-2.112-.814-.542-.543-.814-1.232-.814-2.068 0-.829.268-1.514.803-2.057.536-.55 1.225-.825 2.068-.825zm0 .704c-.572 0-1.052.169-1.441.506-.381.337-.608.781-.682 1.331h4.103c-.08-.587-.304-1.038-.671-1.353a1.967 1.967 0 00-1.309-.484zm6.831-.704c.785 0 1.452.279 2.002.836.558.557.836 1.24.836 2.046 0 .807-.278 1.489-.836 2.046a2.708 2.708 0 01-2.002.836c-.975 0-1.716-.403-2.222-1.21V55.7h-.726V48h.726v1.078c.506-.807 1.247-1.21 2.222-1.21zm-1.595 4.433c.418.418.932.627 1.54.627.609 0 1.122-.209 1.54-.627.418-.433.627-.95.627-1.551 0-.609-.209-1.122-.627-1.54a2.075 2.075 0 00-1.54-.638c-.608 0-1.122.213-1.54.638a2.093 2.093 0 00-.627 1.54c0 .601.209 1.118.627 1.551zm8.082 1.331c-.784 0-1.444-.26-1.98-.781-.528-.528-.792-1.21-.792-2.046 0-.939.14-1.657.418-2.156.279-.506.844-.964 1.694-1.375.272-.125.484-.22.638-.286a8.19 8.19 0 00.605-.264c.638-.293.961-.656.968-1.089l.572.33a1.692 1.692 0 01-.462.88 1.802 1.802 0 01-.418.308 7.463 7.463 0 01-.451.242l-.55.231-.517.22c-.506.22-.883.451-1.133.693-.242.235-.414.543-.517.924.235-.315.543-.554.924-.715a2.836 2.836 0 011.155-.253c.734 0 1.339.242 1.815.726.484.477.726 1.089.726 1.837 0 .74-.256 1.357-.77 1.848-.506.484-1.147.726-1.925.726zm-1.43-1.265c.382.36.858.539 1.43.539s1.042-.172 1.408-.517c.374-.352.561-.796.561-1.331 0-.543-.176-.986-.528-1.331-.344-.352-.806-.528-1.386-.528-.52 0-.993.165-1.419.495-.425.315-.638.748-.638 1.298 0 .557.191 1.016.572 1.375zm7.193.242L235.156 48h.77l-2.354 6.006c-.22.557-.528.986-.924 1.287a1.804 1.804 0 01-1.298.407v-.682c.66.08 1.162-.3 1.507-1.144l.143-.341L230.536 48h.77l2.068 4.609zm6.377-4.741c.785 0 1.452.279 2.002.836.558.557.836 1.24.836 2.046 0 .807-.278 1.489-.836 2.046a2.708 2.708 0 01-2.002.836c-.975 0-1.716-.403-2.222-1.21V55.7h-.726V48h.726v1.078c.506-.807 1.247-1.21 2.222-1.21zm-1.595 4.433c.418.418.932.627 1.54.627.609 0 1.122-.209 1.54-.627.418-.433.627-.95.627-1.551 0-.609-.209-1.122-.627-1.54a2.075 2.075 0 00-1.54-.638c-.608 0-1.122.213-1.54.638a2.093 2.093 0 00-.627 1.54c0 .601.209 1.118.627 1.551zm5.64-4.301h3.52v.704h-2.794V53.5h-.726V48zm8.92 1.078V48h.726v5.5h-.726v-1.078c-.506.807-1.247 1.21-2.222 1.21a2.743 2.743 0 01-2.013-.836c-.55-.557-.825-1.24-.825-2.046 0-.807.275-1.489.825-2.046a2.743 2.743 0 012.013-.836c.975 0 1.716.403 2.222 1.21zm-3.707 3.223c.418.418.931.627 1.54.627.608 0 1.122-.209 1.54-.627.418-.433.627-.95.627-1.551 0-.609-.209-1.122-.627-1.54a2.076 2.076 0 00-1.54-.638c-.609 0-1.122.213-1.54.638a2.093 2.093 0 00-.627 1.54c0 .601.209 1.118.627 1.551z" fill="#818181"/><defs><clipPath id="clip0"><path fill="#fff" transform="translate(.5 .5)" d="M0 0h66.45v38.3H0z"/></clipPath></defs></svg>